<svg width="113" height="116" viewBox="0 0 113 116" fill="none" xmlns="http://www.w3.org/2000/svg">
<path d="M0 84.6083H32.3278C34.1412 84.6083 36.8407 83.7567 38.3265 82.7162L53.6161 72.0055C55.1019 70.965 57.533 70.965 59.0187 72.0055L74.3083 82.7162C75.7941 83.7567 78.4936 84.6083 80.307 84.6083H112.635L105.758 0H72.7225C70.9091 0 68.6544 1.26939 67.7124 2.81997L58.0301 18.7642C57.0881 20.3147 55.5467 20.3147 54.6047 18.7642L44.9224 2.81997C43.9805 1.26939 41.7257 0 39.9123 0H6.87692L0 84.6083Z" fill="#CE211A"/>
<path d="M76.9682 95.1678H72.6414V88.8359H70.8317V95.1678H66.5064C64.7497 95.1678 63.3125 96.605 63.3125 98.3618V103.038C63.3125 104.795 64.7497 106.232 66.5064 106.232H70.8317V115.997H72.6414V106.232H76.9682C78.7249 106.232 80.1621 104.795 80.1621 103.038V98.3618C80.1621 96.605 78.7249 95.1678 76.9682 95.1678Z" fill="#CE211A"/>
<path d="M58.6166 95.1678H54.2899V88.8359H52.4801V95.1678H48.1549C46.3981 95.1678 44.9609 96.605 44.9609 98.3618V103.038C44.9609 104.795 46.3981 106.232 48.1549 106.232H52.4801V115.997H54.2899V106.232H58.6166C60.3734 106.232 61.8106 104.795 61.8106 103.038V98.3618C61.8106 96.605 60.3734 95.1678 58.6166 95.1678Z" fill="#CE211A"/>
<path d="M112.639 113.846L102.615 107.595C102.615 107.595 102.674 108.01 102.635 108.01L109.428 107.99C111.185 107.99 112.622 106.553 112.622 104.796V98.3658C112.622 96.6091 111.185 95.1719 109.428 95.1719H102.491C100.734 95.1719 99.2969 96.6091 99.2969 98.3658V115.941H101.104V111.183C101.104 110.456 100.964 109.124 102.168 109.595L112.625 115.955L112.638 113.846H112.639ZM103.802 103.413H107.681C109.915 103.416 110.875 104.099 110.875 104.94C110.875 105.781 110.051 106.51 107.681 106.467H103.802C101.588 106.51 100.608 105.781 100.608 104.94C100.608 104.099 101.69 103.383 103.802 103.413Z" fill="#CE211A"/>
<path d="M26.6738 95.0312H21.3521C21.3521 95.0312 20.2056 96.111 19.0471 97.4316L15.4488 101.533C14.8809 102.057 14.1312 102.325 13.3755 102.343C13.371 102.343 13.3679 102.343 13.3634 102.343C13.3589 102.343 13.3558 102.343 13.3513 102.343C12.5941 102.325 11.8444 102.057 11.278 101.533L7.67971 97.4316C6.52116 96.111 5.37474 95.0312 5.37474 95.0312H0.0530016L0.0196884 108.064C0.00757293 108.211 0 108.36 0 108.51V115.999H1.80975V108.51C1.80975 107.162 2.5912 106.38 3.25604 106.221C5.17483 105.763 5.99111 107.065 7.11028 108.275L10.5844 112.031C11.3053 112.809 12.2669 113.253 13.3058 113.297V113.304C13.3255 113.304 13.3452 113.301 13.3649 113.301C13.3846 113.301 13.4043 113.304 13.4225 113.304V113.297C14.4614 113.254 15.423 112.809 16.1439 112.031L19.618 108.275C20.7372 107.065 21.5535 105.763 23.4723 106.221C24.1371 106.38 24.9186 107.16 24.9186 108.51V115.999H26.7283V108.51C26.7283 108.358 26.7207 108.21 26.7086 108.064L26.6753 95.0312H26.6738Z" fill="#CE211A"/>
<path d="M29.2984 95.1719C29.2984 95.1719 29.3029 95.1825 29.2999 95.19C29.1697 95.5535 29.2529 96.6076 32.4908 96.5546L37.5278 96.5212C39.2846 96.5091 40.7294 96.5424 40.7142 97.4753C40.6991 98.3567 39.2846 98.5627 37.5278 98.5627H32.4908C30.7341 98.5627 29.2969 99.9999 29.2969 101.757V112.808C29.2969 114.564 30.7341 116.001 32.4908 116.001H39.4285C41.1852 116.001 42.6224 114.564 42.6224 113.58V95.1719H29.2984ZM37.8383 103.401H33.9598C32.2031 103.401 30.625 103.014 30.7659 101.875C30.9143 100.687 32.2031 100.348 33.9598 100.348H37.8383C39.595 100.348 40.9944 100.759 41.0322 101.875C41.0686 102.971 39.595 103.401 37.8383 103.401Z" fill="#CE211A"/>
<path d="M82.9703 95.1719C82.9703 95.1719 82.9748 95.1825 82.9718 95.19C82.8415 95.5535 82.9248 96.6076 86.1627 96.5546L91.1997 96.5212C92.9565 96.5091 94.4012 96.5424 94.3861 97.4753C94.3709 98.3567 92.9565 98.5627 91.1997 98.5627H86.1627C84.406 98.5627 82.9687 99.9999 82.9687 101.757V112.808C82.9687 114.564 84.406 116.001 86.1627 116.001H93.1003C94.8571 116.001 96.2943 114.564 96.2943 113.58V95.1719H82.9703ZM91.5102 103.401H87.6317C85.8749 103.401 84.2969 103.014 84.4378 101.875C84.5862 100.687 85.8749 100.348 87.6317 100.348H91.5102C93.2669 100.348 94.6663 100.759 94.7041 101.875C94.7405 102.971 93.2669 103.401 91.5102 103.401Z" fill="#CE211A"/>
</svg>
